<svg width="1440" height="900" viewBox="0 0 1440 900" fill="none" xmlns="http://www.w3.org/2000/svg">
  <rect width="1440" height="900" fill="#F7F7F4"/>
  <rect x="64" y="56" width="1312" height="788" rx="18" fill="#FFFFFF" stroke="#D9D9D2"/>
  <rect x="64" y="56" width="1312" height="76" rx="18" fill="#111827"/>
  <circle cx="104" cy="94" r="9" fill="#EF4444"/>
  <circle cx="132" cy="94" r="9" fill="#F59E0B"/>
  <circle cx="160" cy="94" r="9" fill="#10B981"/>
  <text x="206" y="103" fill="#F9FAFB" font-family="Inter, Arial, sans-serif" font-size="25" font-weight="700">AlgoLens</text>
  <text x="1220" y="101" fill="#A7F3D0" font-family="Inter, Arial, sans-serif" font-size="18">no-code ML lab</text>
  <rect x="104" y="172" width="332" height="622" rx="14" fill="#F3F4F6" stroke="#E5E7EB"/>
  <text x="136" y="220" fill="#111827" font-family="Inter, Arial, sans-serif" font-size="24" font-weight="700">Dataset</text>
  <rect x="136" y="252" width="268" height="54" rx="10" fill="#FFFFFF" stroke="#D1D5DB"/>
  <text x="160" y="286" fill="#4B5563" font-family="Inter, Arial, sans-serif" font-size="18">Iris.csv uploaded</text>
  <text x="136" y="358" fill="#111827" font-family="Inter, Arial, sans-serif" font-size="24" font-weight="700">Algorithm</text>
  <rect x="136" y="390" width="268" height="46" rx="10" fill="#ECFDF5" stroke="#34D399"/>
  <text x="160" y="420" fill="#047857" font-family="Inter, Arial, sans-serif" font-size="17" font-weight="700">Random Forest</text>
  <rect x="136" y="454" width="268" height="46" rx="10" fill="#FFFFFF" stroke="#D1D5DB"/>
  <text x="160" y="484" fill="#4B5563" font-family="Inter, Arial, sans-serif" font-size="17">SVM</text>
  <rect x="136" y="518" width="268" height="46" rx="10" fill="#FFFFFF" stroke="#D1D5DB"/>
  <text x="160" y="548" fill="#4B5563" font-family="Inter, Arial, sans-serif" font-size="17">KNN</text>
  <rect x="136" y="640" width="268" height="58" rx="12" fill="#111827"/>
  <text x="214" y="676" fill="#FFFFFF" font-family="Inter, Arial, sans-serif" font-size="18" font-weight="700">Train model</text>
  <text x="496" y="222" fill="#111827" font-family="Inter, Arial, sans-serif" font-size="34" font-weight="800">Model performance</text>
  <text x="496" y="260" fill="#6B7280" font-family="Inter, Arial, sans-serif" font-size="19">Upload data, choose an algorithm, and inspect the result visually.</text>
  <rect x="496" y="312" width="386" height="180" rx="16" fill="#F9FAFB" stroke="#E5E7EB"/>
  <text x="532" y="360" fill="#111827" font-family="Inter, Arial, sans-serif" font-size="22" font-weight="700">Accuracy</text>
  <text x="532" y="430" fill="#059669" font-family="Inter, Arial, sans-serif" font-size="66" font-weight="800">97.3%</text>
  <rect x="924" y="312" width="386" height="180" rx="16" fill="#F9FAFB" stroke="#E5E7EB"/>
  <text x="960" y="360" fill="#111827" font-family="Inter, Arial, sans-serif" font-size="22" font-weight="700">F1 score</text>
  <text x="960" y="430" fill="#2563EB" font-family="Inter, Arial, sans-serif" font-size="66" font-weight="800">0.96</text>
  <rect x="496" y="542" width="814" height="252" rx="16" fill="#F9FAFB" stroke="#E5E7EB"/>
  <text x="532" y="590" fill="#111827" font-family="Inter, Arial, sans-serif" font-size="22" font-weight="700">Feature lens</text>
  <rect x="540" y="706" width="112" height="46" rx="6" fill="#34D399"/>
  <rect x="682" y="646" width="112" height="106" rx="6" fill="#60A5FA"/>
  <rect x="824" y="626" width="112" height="126" rx="6" fill="#F59E0B"/>
  <rect x="966" y="674" width="112" height="78" rx="6" fill="#A78BFA"/>
  <rect x="1108" y="612" width="112" height="140" rx="6" fill="#F87171"/>
  <line x1="532" y1="752" x2="1268" y2="752" stroke="#D1D5DB" stroke-width="2"/>
</svg>
