<svg width="1200" height="360" viewBox="0 0 1200 360" fill="none" xmlns="http://www.w3.org/2000/svg">
  <rect width="1200" height="360" rx="14" fill="#FFFFFF"/>
  <text x="44" y="58" fill="#111827" font-family="Inter, Arial, sans-serif" font-size="28" font-weight="800">LeetCode Contribution Graph</text>
  <text x="44" y="92" fill="#6B7280" font-family="Inter, Arial, sans-serif" font-size="18">swarn_shekhar</text>
  <text x="928" y="58" fill="#059669" font-family="Inter, Arial, sans-serif" font-size="24" font-weight="800">1000+ solved</text>
  <text x="930" y="92" fill="#6B7280" font-family="Inter, Arial, sans-serif" font-size="16">DSA practice streak</text>
  <g transform="translate(44 128)">
    <text x="0" y="32" fill="#9CA3AF" font-family="Inter, Arial, sans-serif" font-size="12">Mon</text>
    <text x="0" y="76" fill="#9CA3AF" font-family="Inter, Arial, sans-serif" font-size="12">Wed</text>
    <text x="0" y="120" fill="#9CA3AF" font-family="Inter, Arial, sans-serif" font-size="12">Fri</text>
    <g transform="translate(50 0)">
      <rect x="0" y="0" width="16" height="16" rx="3" fill="#EBEDF0"/><rect x="0" y="22" width="16" height="16" rx="3" fill="#EBEDF0"/><rect x="0" y="44" width="16" height="16" rx="3" fill="#9BE9A8"/><rect x="0" y="66" width="16" height="16" rx="3" fill="#40C463"/><rect x="0" y="88" width="16" height="16" rx="3" fill="#30A14E"/><rect x="0" y="110" width="16" height="16" rx="3" fill="#216E39"/>
      <rect x="24" y="0" width="16" height="16" rx="3" fill="#9BE9A8"/><rect x="24" y="22" width="16" height="16" rx="3" fill="#EBEDF0"/><rect x="24" y="44" width="16" height="16" rx="3" fill="#40C463"/><rect x="24" y="66" width="16" height="16" rx="3" fill="#EBEDF0"/><rect x="24" y="88" width="16" height="16" rx="3" fill="#30A14E"/><rect x="24" y="110" width="16" height="16" rx="3" fill="#40C463"/>
      <rect x="48" y="0" width="16" height="16" rx="3" fill="#40C463"/><rect x="48" y="22" width="16" height="16" rx="3" fill="#9BE9A8"/><rect x="48" y="44" width="16" height="16" rx="3" fill="#EBEDF0"/><rect x="48" y="66" width="16" height="16" rx="3" fill="#30A14E"/><rect x="48" y="88" width="16" height="16" rx="3" fill="#216E39"/><rect x="48" y="110" width="16" height="16" rx="3" fill="#EBEDF0"/>
      <rect x="72" y="0" width="16" height="16" rx="3" fill="#30A14E"/><rect x="72" y="22" width="16" height="16" rx="3" fill="#40C463"/><rect x="72" y="44" width="16" height="16" rx="3" fill="#9BE9A8"/><rect x="72" y="66" width="16" height="16" rx="3" fill="#216E39"/><rect x="72" y="88" width="16" height="16" rx="3" fill="#40C463"/><rect x="72" y="110" width="16" height="16" rx="3" fill="#9BE9A8"/>
      <rect x="96" y="0" width="16" height="16" rx="3" fill="#EBEDF0"/><rect x="96" y="22" width="16" height="16" rx="3" fill="#40C463"/><rect x="96" y="44" width="16" height="16" rx="3" fill="#30A14E"/><rect x="96" y="66" width="16" height="16" rx="3" fill="#40C463"/><rect x="96" y="88" width="16" height="16" rx="3" fill="#EBEDF0"/><rect x="96" y="110" width="16" height="16" rx="3" fill="#216E39"/>
      <rect x="120" y="0" width="16" height="16" rx="3" fill="#9BE9A8"/><rect x="120" y="22" width="16" height="16" rx="3" fill="#30A14E"/><rect x="120" y="44" width="16" height="16" rx="3" fill="#40C463"/><rect x="120" y="66" width="16" height="16" rx="3" fill="#9BE9A8"/><rect x="120" y="88" width="16" height="16" rx="3" fill="#216E39"/><rect x="120" y="110" width="16" height="16" rx="3" fill="#30A14E"/>
      <rect x="144" y="0" width="16" height="16" rx="3" fill="#216E39"/><rect x="144" y="22" width="16" height="16" rx="3" fill="#40C463"/><rect x="144" y="44" width="16" height="16" rx="3" fill="#EBEDF0"/><rect x="144" y="66" width="16" height="16" rx="3" fill="#30A14E"/><rect x="144" y="88" width="16" height="16" rx="3" fill="#9BE9A8"/><rect x="144" y="110" width="16" height="16" rx="3" fill="#40C463"/>
      <rect x="168" y="0" width="16" height="16" rx="3" fill="#40C463"/><rect x="168" y="22" width="16" height="16" rx="3" fill="#216E39"/><rect x="168" y="44" width="16" height="16" rx="3" fill="#40C463"/><rect x="168" y="66" width="16" height="16" rx="3" fill="#EBEDF0"/><rect x="168" y="88" width="16" height="16" rx="3" fill="#30A14E"/><rect x="168" y="110" width="16" height="16" rx="3" fill="#9BE9A8"/>
      <rect x="192" y="0" width="16" height="16" rx="3" fill="#9BE9A8"/><rect x="192" y="22" width="16" height="16" rx="3" fill="#40C463"/><rect x="192" y="44" width="16" height="16" rx="3" fill="#30A14E"/><rect x="192" y="66" width="16" height="16" rx="3" fill="#216E39"/><rect x="192" y="88" width="16" height="16" rx="3" fill="#40C463"/><rect x="192" y="110" width="16" height="16" rx="3" fill="#EBEDF0"/>
      <rect x="216" y="0" width="16" height="16" rx="3" fill="#EBEDF0"/><rect x="216" y="22" width="16" height="16" rx="3" fill="#9BE9A8"/><rect x="216" y="44" width="16" height="16" rx="3" fill="#40C463"/><rect x="216" y="66" width="16" height="16" rx="3" fill="#30A14E"/><rect x="216" y="88" width="16" height="16" rx="3" fill="#216E39"/><rect x="216" y="110" width="16" height="16" rx="3" fill="#40C463"/>
      <use href="#week" x="240"/>
      <use href="#week" x="480"/>
      <use href="#week" x="720"/>
    </g>
  </g>
  <defs>
    <g id="week">
      <rect x="0" y="0" width="16" height="16" rx="3" fill="#40C463"/><rect x="0" y="22" width="16" height="16" rx="3" fill="#30A14E"/><rect x="0" y="44" width="16" height="16" rx="3" fill="#9BE9A8"/><rect x="0" y="66" width="16" height="16" rx="3" fill="#216E39"/><rect x="0" y="88" width="16" height="16" rx="3" fill="#EBEDF0"/><rect x="0" y="110" width="16" height="16" rx="3" fill="#40C463"/>
      <rect x="24" y="0" width="16" height="16" rx="3" fill="#9BE9A8"/><rect x="24" y="22" width="16" height="16" rx="3" fill="#EBEDF0"/><rect x="24" y="44" width="16" height="16" rx="3" fill="#30A14E"/><rect x="24" y="66" width="16" height="16" rx="3" fill="#40C463"/><rect x="24" y="88" width="16" height="16" rx="3" fill="#216E39"/><rect x="24" y="110" width="16" height="16" rx="3" fill="#30A14E"/>
      <rect x="48" y="0" width="16" height="16" rx="3" fill="#30A14E"/><rect x="48" y="22" width="16" height="16" rx="3" fill="#40C463"/><rect x="48" y="44" width="16" height="16" rx="3" fill="#216E39"/><rect x="48" y="66" width="16" height="16" rx="3" fill="#EBEDF0"/><rect x="48" y="88" width="16" height="16" rx="3" fill="#9BE9A8"/><rect x="48" y="110" width="16" height="16" rx="3" fill="#40C463"/>
      <rect x="72" y="0" width="16" height="16" rx="3" fill="#EBEDF0"/><rect x="72" y="22" width="16" height="16" rx="3" fill="#9BE9A8"/><rect x="72" y="44" width="16" height="16" rx="3" fill="#40C463"/><rect x="72" y="66" width="16" height="16" rx="3" fill="#30A14E"/><rect x="72" y="88" width="16" height="16" rx="3" fill="#40C463"/><rect x="72" y="110" width="16" height="16" rx="3" fill="#216E39"/>
      <rect x="96" y="0" width="16" height="16" rx="3" fill="#40C463"/><rect x="96" y="22" width="16" height="16" rx="3" fill="#216E39"/><rect x="96" y="44" width="16" height="16" rx="3" fill="#30A14E"/><rect x="96" y="66" width="16" height="16" rx="3" fill="#9BE9A8"/><rect x="96" y="88" width="16" height="16" rx="3" fill="#EBEDF0"/><rect x="96" y="110" width="16" height="16" rx="3" fill="#30A14E"/>
      <rect x="120" y="0" width="16" height="16" rx="3" fill="#9BE9A8"/><rect x="120" y="22" width="16" height="16" rx="3" fill="#40C463"/><rect x="120" y="44" width="16" height="16" rx="3" fill="#30A14E"/><rect x="120" y="66" width="16" height="16" rx="3" fill="#216E39"/><rect x="120" y="88" width="16" height="16" rx="3" fill="#40C463"/><rect x="120" y="110" width="16" height="16" rx="3" fill="#9BE9A8"/>
      <rect x="144" y="0" width="16" height="16" rx="3" fill="#216E39"/><rect x="144" y="22" width="16" height="16" rx="3" fill="#30A14E"/><rect x="144" y="44" width="16" height="16" rx="3" fill="#40C463"/><rect x="144" y="66" width="16" height="16" rx="3" fill="#9BE9A8"/><rect x="144" y="88" width="16" height="16" rx="3" fill="#EBEDF0"/><rect x="144" y="110" width="16" height="16" rx="3" fill="#40C463"/>
      <rect x="168" y="0" width="16" height="16" rx="3" fill="#40C463"/><rect x="168" y="22" width="16" height="16" rx="3" fill="#EBEDF0"/><rect x="168" y="44" width="16" height="16" rx="3" fill="#9BE9A8"/><rect x="168" y="66" width="16" height="16" rx="3" fill="#30A14E"/><rect x="168" y="88" width="16" height="16" rx="3" fill="#216E39"/><rect x="168" y="110" width="16" height="16" rx="3" fill="#40C463"/>
      <rect x="192" y="0" width="16" height="16" rx="3" fill="#30A14E"/><rect x="192" y="22" width="16" height="16" rx="3" fill="#40C463"/><rect x="192" y="44" width="16" height="16" rx="3" fill="#216E39"/><rect x="192" y="66" width="16" height="16" rx="3" fill="#40C463"/><rect x="192" y="88" width="16" height="16" rx="3" fill="#9BE9A8"/><rect x="192" y="110" width="16" height="16" rx="3" fill="#EBEDF0"/>
      <rect x="216" y="0" width="16" height="16" rx="3" fill="#9BE9A8"/><rect x="216" y="22" width="16" height="16" rx="3" fill="#30A14E"/><rect x="216" y="44" width="16" height="16" rx="3" fill="#40C463"/><rect x="216" y="66" width="16" height="16" rx="3" fill="#216E39"/><rect x="216" y="88" width="16" height="16" rx="3" fill="#40C463"/><rect x="216" y="110" width="16" height="16" rx="3" fill="#9BE9A8"/>
    </g>
  </defs>
  <text x="932" y="310" fill="#6B7280" font-family="Inter, Arial, sans-serif" font-size="14">Less</text>
  <rect x="974" y="298" width="14" height="14" rx="3" fill="#EBEDF0"/>
  <rect x="996" y="298" width="14" height="14" rx="3" fill="#9BE9A8"/>
  <rect x="1018" y="298" width="14" height="14" rx="3" fill="#40C463"/>
  <rect x="1040" y="298" width="14" height="14" rx="3" fill="#30A14E"/>
  <rect x="1062" y="298" width="14" height="14" rx="3" fill="#216E39"/>
  <text x="1088" y="310" fill="#6B7280" font-family="Inter, Arial, sans-serif" font-size="14">More</text>
</svg>
